# xmcd
#
# Track frame offsets:
#	150
#	12959
#	28258
#	43153
#	58329
#	72956
#	88130
#	101689
#	118560
#	133815
#
# Disc length: 1962 seconds
#
# Revision: 1
# Processed by: cddbd v1.5.2PL0 Copyright (c) Steve Scherf et al.
# Submitted via: audiograbber 1.82.02
#
DISCID=9207a80a
DTITLE=Dean Perrett - The Real Thing
DYEAR=2001
DGENRE=Country
TTITLE0=Back In The Bush Again
TTITLE1=Georgina River
TTITLE2=Australia Land That I Love
TTITLE3=The Shelter Of The Cross
TTITLE4=The Young Balladeers
TTITLE5=Let Me Keep My Horses
TTITLE6=The Saddle Is His Home
TTITLE7=The Tide Of Time
TTITLE8=Where The Desert Flowers Bloom
TTITLE9=The Real Thing
EXTD=
EXTT0=
EXTT1=
EXTT2=
EXTT3=
EXTT4=
EXTT5=
EXTT6=
EXTT7=
EXTT8=
EXTT9=
PLAYORDER=
